<svg width="24" height="24" viewBox="0 0 24 24" fill="none" xmlns="http://www.w3.org/2000/svg">
<path d="M11.9987 2.00018C6.47744 2.00018 2 6.47593 2 11.9973C2 16.4134 4.86509 20.1597 8.84002 21.4827C9.33997 21.5751 9.52254 21.2665 9.52254 21.0013C9.52254 20.7635 9.51395 20.1349 9.50871 19.3009C6.72752 19.9047 6.14014 17.9605 6.14014 17.9605C5.68633 16.8053 5.02997 16.498 5.02997 16.498C4.12118 15.8782 5.09757 15.8907 5.09757 15.8907C6.10125 15.9615 6.62873 16.9212 6.62873 16.9212C7.52122 18.4484 8.97011 18.0077 9.54006 17.7514C9.63 17.1054 9.88867 16.6649 10.1752 16.4147C7.955 16.162 5.6199 15.3043 5.6199 11.4746C5.6199 10.383 6.01009 9.49069 6.6499 8.79107C6.54617 8.5384 6.20372 7.5214 6.74751 6.14602C6.74751 6.14602 7.58761 5.87737 9.49739 7.17043C10.295 6.94881 11.15 6.83823 12.0012 6.83448C12.8499 6.8396 13.706 6.94881 14.5049 7.1718C16.4138 5.87853 17.2525 6.14739 17.2525 6.14739C17.7974 7.52402 17.455 8.53974 17.3525 8.79224C17.9936 9.49185 18.38 10.3842 18.38 11.4759C18.38 15.3156 16.0425 16.1607 13.8151 16.4083C14.1738 16.7172 14.4937 17.3268 14.4937 18.2591C14.4937 19.5961 14.4812 20.6738 14.4812 21.0013C14.4812 21.2688 14.6612 21.5799 15.1687 21.4816C19.1375 20.1571 22 16.4122 22 11.9973C22 6.47589 17.5226 2.00018 11.9987 2.00018Z" fill="#95A2A7"/>
</svg>
