<svg width="24" height="24" viewBox="0 0 24 24" fill="none" xmlns="http://www.w3.org/2000/svg">
<path fill-rule="evenodd" clip-rule="evenodd" d="M12 2C17.5191 2 22 6.48086 22 12C22 17.5191 17.5191 22 12 22C6.48086 22 2 17.5191 2 12C2 6.48086 6.48086 2 12 2ZM13.5975 15.5105C14.2976 15.5105 14.8696 16.0825 14.8696 16.7826C14.8696 17.4827 14.2976 18.0547 13.5975 18.0547C12.8973 18.0547 12.3254 17.4827 12.3254 16.7826V15.5105H13.5975ZM9.13043 13.5975C9.13043 12.8973 9.70238 12.3254 10.4025 12.3254C11.1027 12.3254 11.6746 12.8973 11.6746 13.5975V16.7826C11.6746 17.4827 11.1027 18.0547 10.4025 18.0547C9.70238 18.0547 9.13043 17.4827 9.13043 16.7826V13.5975ZM8.48945 13.5975C8.48945 14.2976 7.91754 14.8696 7.21738 14.8696C6.51727 14.8696 5.94531 14.2976 5.94531 13.5975C5.94531 12.8973 6.51727 12.3254 7.21738 12.3254H8.48945V13.5975ZM16.7826 14.8696C17.4828 14.8695 18.0547 14.2976 18.0547 13.5975C18.0547 12.8973 17.4827 12.3254 16.7826 12.3254H13.5975C12.8973 12.3254 12.3254 12.8973 12.3254 13.5975C12.3254 14.2976 12.8973 14.8696 13.5975 14.8696H16.7826ZM16.7826 11.6746C17.4828 11.6746 18.0547 11.1026 18.0547 10.4025C18.0547 9.70238 17.4827 9.13043 16.7826 9.13043C16.0825 9.13043 15.5105 9.70238 15.5105 10.4025V11.6746H16.7826ZM14.8696 10.4025C14.8696 11.1027 14.2976 11.6746 13.5975 11.6746C12.8973 11.6746 12.3254 11.1027 12.3254 10.4025V7.21738C12.3254 6.51727 12.8973 5.94531 13.5975 5.94531C14.2976 5.94531 14.8696 6.51727 14.8696 7.21738V10.4025ZM10.4025 11.6746C11.1027 11.6746 11.6746 11.1026 11.6746 10.4025C11.6746 9.70238 11.1027 9.13043 10.4025 9.13043H7.21738C6.51727 9.13043 5.94531 9.70238 5.94531 10.4025C5.94531 11.1027 6.51727 11.6746 7.21738 11.6746H10.4025ZM11.6746 8.48945V7.21738C11.6746 6.51727 11.1027 5.94531 10.4025 5.94531C9.70238 5.94531 9.13043 6.51727 9.13043 7.21738C9.13043 7.91754 9.70238 8.48945 10.4025 8.48945H11.6746Z" fill="#95A2A7"/>
</svg>
